<svg xmlns="http://www.w3.org/2000/svg" xmlns:xlink="http://www.w3.org/1999/xlink" width="500" zoomAndPan="magnify" viewBox="0 0 375 374.999991" height="500" preserveAspectRatio="xMidYMid meet" version="1.0"><defs><g/><clipPath id="684e65f4e6"><path d="M 156 40 L 181.785156 40 L 181.785156 79.570312 L 156 79.570312 Z M 156 40 " clip-rule="nonzero"/></clipPath><clipPath id="648cee5896"><path d="M 106 9 L 170 9 L 170 79.570312 L 106 79.570312 Z M 106 9 " clip-rule="nonzero"/></clipPath><clipPath id="381b9593b6"><path d="M 164 0.0390625 L 178 0.0390625 L 178 14 L 164 14 Z M 164 0.0390625 " clip-rule="nonzero"/></clipPath><clipPath id="8a2f9ab925"><rect x="0" width="337" y="0" height="89"/></clipPath><clipPath id="222e3656da"><path d="M 121 0.679688 L 123 0.679688 L 123 14 L 121 14 Z M 121 0.679688 " clip-rule="nonzero"/></clipPath><clipPath id="d571430a7a"><path d="M 130 0.679688 L 132 0.679688 L 132 14 L 130 14 Z M 130 0.679688 " clip-rule="nonzero"/></clipPath><clipPath id="e80cbc81e9"><path d="M 140 0.679688 L 141 0.679688 L 141 14 L 140 14 Z M 140 0.679688 " clip-rule="nonzero"/></clipPath><clipPath id="074e9b51b8"><rect x="0" width="159" y="0" height="17"/></clipPath></defs><g transform="matrix(1, 0, 0, 1, 19, 143)"><g clip-path="url(#8a2f9ab925)"><g clip-path="url(#684e65f4e6)"><path fill="#0cc0df" d="M 180.414062 69.9375 L 163.515625 40.679688 L 156.066406 53.597656 L 169.222656 76.390625 C 170.410156 78.449219 172.582031 79.621094 174.816406 79.621094 C 175.910156 79.621094 177.019531 79.335938 178.035156 78.75 C 181.140625 76.960938 182.1875 73.027344 180.414062 69.9375 Z M 180.414062 69.9375 " fill-opacity="1" fill-rule="nonzero"/></g><g clip-path="url(#648cee5896)"><path fill="#0cc0df" d="M 168.558594 24.605469 L 161.390625 37.015625 L 153.925781 49.933594 L 142.386719 69.921875 C 138.933594 75.914062 132.480469 79.640625 125.570312 79.640625 C 118.546875 79.640625 112.253906 76.007812 108.734375 69.921875 C 105.21875 63.851562 105.21875 56.574219 108.734375 50.488281 L 128.929688 15.539062 C 131.023438 11.910156 134.777344 9.738281 138.964844 9.738281 C 143.148438 9.738281 146.90625 11.910156 149.011719 15.539062 L 149.742188 16.808594 L 151.835938 20.421875 L 144.367188 33.339844 L 138.964844 23.988281 L 119.941406 56.941406 C 118.246094 59.875 119.371094 62.472656 119.941406 63.457031 C 120.511719 64.4375 122.195312 66.71875 125.585938 66.71875 C 127.898438 66.71875 130.070312 65.46875 131.210938 63.457031 L 146.476562 37.015625 L 153.941406 24.097656 L 157.367188 18.152344 C 159.15625 15.0625 163.105469 14 166.195312 15.792969 C 169.285156 17.566406 170.347656 21.515625 168.558594 24.605469 Z M 168.558594 24.605469 " fill-opacity="1" fill-rule="nonzero"/></g><g clip-path="url(#381b9593b6)"><path fill="#0cc0df" d="M 165.417969 9.261719 C 168.875 17.042969 180.398438 12.273438 177.355469 4.316406 C 173.882812 -3.449219 162.359375 1.320312 165.417969 9.261719 Z M 165.417969 9.261719 " fill-opacity="1" fill-rule="nonzero"/></g><g fill="#ffffff" fill-opacity="1"><g transform="translate(0.96092, 74.311651)"><g><path d="M 32.53125 -0.203125 C 28.519531 -0.203125 24.753906 -0.957031 21.234375 -2.46875 C 17.722656 -3.976562 14.625 -6.070312 11.9375 -8.75 C 9.25 -11.4375 7.148438 -14.550781 5.640625 -18.09375 C 4.128906 -21.632812 3.375 -25.410156 3.375 -29.421875 C 3.375 -33.429688 4.128906 -37.195312 5.640625 -40.71875 C 7.148438 -44.238281 9.25 -47.335938 11.9375 -50.015625 C 14.625 -52.703125 17.722656 -54.800781 21.234375 -56.3125 C 24.753906 -57.820312 28.519531 -58.578125 32.53125 -58.578125 C 38.757812 -58.578125 44.375 -56.796875 49.375 -53.234375 C 50.414062 -52.515625 51.035156 -51.554688 51.234375 -50.359375 C 51.441406 -49.160156 51.179688 -48.046875 50.453125 -47.015625 C 49.734375 -46.015625 48.773438 -45.410156 47.578125 -45.203125 C 46.390625 -45.003906 45.273438 -45.242188 44.234375 -45.921875 C 40.722656 -48.398438 36.820312 -49.640625 32.53125 -49.640625 C 29.738281 -49.640625 27.125 -49.117188 24.6875 -48.078125 C 22.25 -47.046875 20.09375 -45.59375 18.21875 -43.71875 C 16.351562 -41.851562 14.898438 -39.703125 13.859375 -37.265625 C 12.828125 -34.835938 12.3125 -32.222656 12.3125 -29.421875 C 12.3125 -26.628906 12.828125 -24.003906 13.859375 -21.546875 C 14.898438 -19.085938 16.351562 -16.929688 18.21875 -15.078125 C 20.09375 -13.234375 22.25 -11.78125 24.6875 -10.71875 C 27.125 -9.65625 29.738281 -9.125 32.53125 -9.125 C 34.96875 -9.125 37.320312 -9.539062 39.59375 -10.375 C 41.875 -11.21875 43.914062 -12.425781 45.71875 -14 C 46.664062 -14.769531 47.75 -15.109375 48.96875 -15.015625 C 50.1875 -14.921875 51.203125 -14.425781 52.015625 -13.53125 C 52.785156 -12.582031 53.125 -11.5 53.03125 -10.28125 C 52.9375 -9.0625 52.441406 -8.046875 51.546875 -7.234375 C 48.929688 -4.984375 45.976562 -3.25 42.6875 -2.03125 C 39.394531 -0.8125 36.007812 -0.203125 32.53125 -0.203125 Z M 32.53125 -0.203125 "/></g></g></g><g fill="#ffffff" fill-opacity="1"><g transform="translate(57.376721, 74.311651)"><g><path d="M 7.84375 -0.34375 C 6.582031 -0.34375 5.519531 -0.769531 4.65625 -1.625 C 3.800781 -2.476562 3.375 -3.535156 3.375 -4.796875 L 3.375 -54.1875 C 3.375 -55.445312 3.800781 -56.503906 4.65625 -57.359375 C 5.519531 -58.210938 6.582031 -58.640625 7.84375 -58.640625 C 9.0625 -58.640625 10.109375 -58.210938 10.984375 -57.359375 C 11.867188 -56.503906 12.3125 -55.445312 12.3125 -54.1875 L 12.3125 -9.203125 L 39.96875 -9.203125 C 41.1875 -9.203125 42.234375 -8.769531 43.109375 -7.90625 C 43.992188 -7.050781 44.4375 -6.015625 44.4375 -4.796875 C 44.4375 -3.535156 43.992188 -2.476562 43.109375 -1.625 C 42.234375 -0.769531 41.1875 -0.34375 39.96875 -0.34375 Z M 7.84375 -0.34375 "/></g></g></g><g fill="#ffffff" fill-opacity="1"><g transform="translate(182.198346, 74.311651)"><g><path d="M 3.375 -0.265625 L 3.375 -58.109375 L 39.234375 -58.109375 C 40.453125 -58.109375 41.5 -57.675781 42.375 -56.8125 C 43.257812 -55.957031 43.703125 -54.898438 43.703125 -53.640625 C 43.703125 -52.421875 43.257812 -51.367188 42.375 -50.484375 C 41.5 -49.609375 40.453125 -49.171875 39.234375 -49.171875 L 12.3125 -49.171875 L 12.3125 -38.078125 L 32.53125 -38.078125 C 33.789062 -38.078125 34.847656 -37.648438 35.703125 -36.796875 C 36.566406 -35.941406 37 -34.882812 37 -33.625 C 37 -32.40625 36.566406 -31.351562 35.703125 -30.46875 C 34.847656 -29.59375 33.789062 -29.15625 32.53125 -29.15625 L 12.3125 -29.15625 L 12.3125 -9.125 L 39.234375 -9.125 C 40.453125 -9.125 41.5 -8.695312 42.375 -7.84375 C 43.257812 -6.988281 43.703125 -5.953125 43.703125 -4.734375 C 43.703125 -3.472656 43.257812 -2.410156 42.375 -1.546875 C 41.5 -0.691406 40.453125 -0.265625 39.234375 -0.265625 Z M 3.375 -0.265625 "/></g></g></g><g fill="#ffffff" fill-opacity="1"><g transform="translate(229.279162, 74.311651)"><g><path d="M 3.375 -0.203125 L 3.375 -54.109375 C 3.375 -55.054688 3.65625 -55.925781 4.21875 -56.71875 C 4.789062 -57.507812 5.523438 -58.0625 6.421875 -58.375 C 7.328125 -58.644531 8.238281 -58.632812 9.15625 -58.34375 C 10.082031 -58.050781 10.84375 -57.519531 11.4375 -56.75 L 39.703125 -18.265625 L 39.703125 -58.578125 L 48.640625 -58.578125 L 48.640625 -4.671875 C 48.640625 -3.722656 48.34375 -2.851562 47.75 -2.0625 C 47.164062 -1.269531 46.421875 -0.738281 45.515625 -0.46875 C 45.160156 -0.289062 44.710938 -0.203125 44.171875 -0.203125 C 42.722656 -0.203125 41.523438 -0.8125 40.578125 -2.03125 L 12.3125 -40.515625 L 12.3125 -0.203125 Z M 3.375 -0.203125 "/></g></g></g><g fill="#ffffff" fill-opacity="1"><g transform="translate(281.298057, 74.311651)"><g><path d="M 23.140625 -0.140625 L 23.140625 -49.109375 L 7.84375 -49.109375 C 6.582031 -49.109375 5.519531 -49.535156 4.65625 -50.390625 C 3.800781 -51.242188 3.375 -52.304688 3.375 -53.578125 C 3.375 -54.785156 3.800781 -55.816406 4.65625 -56.671875 C 5.519531 -57.535156 6.582031 -57.96875 7.84375 -57.96875 L 46.875 -57.96875 C 48.132812 -57.96875 49.191406 -57.535156 50.046875 -56.671875 C 50.910156 -55.816406 51.34375 -54.785156 51.34375 -53.578125 C 51.34375 -52.304688 50.910156 -51.242188 50.046875 -50.390625 C 49.191406 -49.535156 48.132812 -49.109375 46.875 -49.109375 L 32.0625 -49.109375 L 32.0625 -0.140625 Z M 23.140625 -0.140625 "/></g></g></g></g></g><g transform="matrix(1, 0, 0, 1, 108, 223)"><g clip-path="url(#074e9b51b8)"><g fill="#ffffff" fill-opacity="1"><g transform="translate(0.678952, 13.787964)"><g><path d="M 5.90625 -4.390625 C 6.269531 -4.203125 6.566406 -3.921875 6.796875 -3.546875 C 7.035156 -3.171875 7.15625 -2.757812 7.15625 -2.3125 C 7.15625 -1.882812 7.054688 -1.492188 6.859375 -1.140625 C 6.660156 -0.796875 6.394531 -0.519531 6.0625 -0.3125 C 5.726562 -0.101562 5.359375 0 4.953125 0 L 2.3125 0 C 2.09375 0 1.878906 0 1.671875 0 C 1.460938 0 1.289062 0 1.15625 0 C 1.019531 0 0.945312 0 0.9375 0 L 0.703125 0 L 0.703125 -8.125 L 2.953125 -8.125 C 3.285156 -8.125 3.601562 -8.125 3.90625 -8.125 C 4.207031 -8.125 4.457031 -8.117188 4.65625 -8.109375 C 4.851562 -8.109375 4.953125 -8.109375 4.953125 -8.109375 C 5.304688 -8.109375 5.625 -8.019531 5.90625 -7.84375 C 6.195312 -7.664062 6.425781 -7.425781 6.59375 -7.125 C 6.769531 -6.832031 6.859375 -6.5 6.859375 -6.125 C 6.859375 -5.75 6.769531 -5.410156 6.59375 -5.109375 C 6.414062 -4.804688 6.1875 -4.566406 5.90625 -4.390625 Z M 1.1875 -4.609375 L 4.953125 -4.609375 C 5.222656 -4.609375 5.460938 -4.675781 5.671875 -4.8125 C 5.890625 -4.945312 6.0625 -5.128906 6.1875 -5.359375 C 6.3125 -5.597656 6.375 -5.851562 6.375 -6.125 C 6.375 -6.40625 6.3125 -6.660156 6.1875 -6.890625 C 6.0625 -7.117188 5.890625 -7.300781 5.671875 -7.4375 C 5.460938 -7.570312 5.222656 -7.640625 4.953125 -7.640625 L 2.953125 -7.640625 C 2.597656 -7.640625 2.257812 -7.640625 1.9375 -7.640625 C 1.613281 -7.640625 1.363281 -7.640625 1.1875 -7.640625 Z M 4.953125 -0.484375 C 5.273438 -0.484375 5.5625 -0.566406 5.8125 -0.734375 C 6.070312 -0.898438 6.28125 -1.117188 6.4375 -1.390625 C 6.59375 -1.660156 6.671875 -1.96875 6.671875 -2.3125 C 6.671875 -2.644531 6.59375 -2.945312 6.4375 -3.21875 C 6.28125 -3.488281 6.070312 -3.707031 5.8125 -3.875 C 5.5625 -4.039062 5.273438 -4.125 4.953125 -4.125 L 1.1875 -4.125 L 1.1875 -0.484375 L 2.3125 -0.484375 C 2.65625 -0.484375 2.96875 -0.484375 3.25 -0.484375 C 3.53125 -0.484375 3.671875 -0.484375 3.671875 -0.484375 Z M 4.953125 -0.484375 "/></g></g></g><g fill="#ffffff" fill-opacity="1"><g transform="translate(8.24539, 13.787964)"><g><path d="M 1.296875 -0.484375 L 7.390625 -0.484375 L 7.390625 0 L 0.40625 0 L 0.40625 -0.53125 L 0.421875 -0.546875 C 0.484375 -0.578125 0.546875 -0.609375 0.609375 -0.640625 C 0.671875 -0.679688 0.734375 -0.71875 0.796875 -0.75 C 1.128906 -0.925781 1.507812 -1.128906 1.9375 -1.359375 C 2.363281 -1.597656 2.804688 -1.859375 3.265625 -2.140625 C 3.722656 -2.429688 4.15625 -2.726562 4.5625 -3.03125 C 5.988281 -4.125 6.703125 -5.128906 6.703125 -6.046875 C 6.703125 -6.578125 6.378906 -6.992188 5.734375 -7.296875 C 5.472656 -7.410156 5.164062 -7.503906 4.8125 -7.578125 C 4.46875 -7.648438 4.117188 -7.6875 3.765625 -7.6875 C 3.492188 -7.6875 3.203125 -7.65625 2.890625 -7.59375 C 2.578125 -7.539062 2.28125 -7.445312 2 -7.3125 C 1.71875 -7.1875 1.484375 -7.019531 1.296875 -6.8125 C 1.117188 -6.601562 1.03125 -6.351562 1.03125 -6.0625 L 0.546875 -6.0625 C 0.546875 -6.75 0.925781 -7.289062 1.6875 -7.6875 C 1.976562 -7.84375 2.300781 -7.957031 2.65625 -8.03125 C 3.019531 -8.113281 3.390625 -8.15625 3.765625 -8.15625 C 3.890625 -8.15625 4.066406 -8.144531 4.296875 -8.125 C 4.523438 -8.113281 4.785156 -8.078125 5.078125 -8.015625 C 5.367188 -7.953125 5.65625 -7.859375 5.9375 -7.734375 C 6.769531 -7.335938 7.1875 -6.773438 7.1875 -6.046875 C 7.1875 -5.578125 7.050781 -5.125 6.78125 -4.6875 C 6.519531 -4.25 6.171875 -3.828125 5.734375 -3.421875 C 5.304688 -3.015625 4.832031 -2.628906 4.3125 -2.265625 C 3.789062 -1.910156 3.265625 -1.582031 2.734375 -1.28125 C 2.210938 -0.976562 1.734375 -0.710938 1.296875 -0.484375 Z M 1.296875 -0.484375 "/></g></g></g><g fill="#ffffff" fill-opacity="1"><g transform="translate(16.044641, 13.787964)"><g><path d="M 5.90625 -4.390625 C 6.269531 -4.203125 6.566406 -3.921875 6.796875 -3.546875 C 7.035156 -3.171875 7.15625 -2.757812 7.15625 -2.3125 C 7.15625 -1.882812 7.054688 -1.492188 6.859375 -1.140625 C 6.660156 -0.796875 6.394531 -0.519531 6.0625 -0.3125 C 5.726562 -0.101562 5.359375 0 4.953125 0 L 2.3125 0 C 2.09375 0 1.878906 0 1.671875 0 C 1.460938 0 1.289062 0 1.15625 0 C 1.019531 0 0.945312 0 0.9375 0 L 0.703125 0 L 0.703125 -8.125 L 2.953125 -8.125 C 3.285156 -8.125 3.601562 -8.125 3.90625 -8.125 C 4.207031 -8.125 4.457031 -8.117188 4.65625 -8.109375 C 4.851562 -8.109375 4.953125 -8.109375 4.953125 -8.109375 C 5.304688 -8.109375 5.625 -8.019531 5.90625 -7.84375 C 6.195312 -7.664062 6.425781 -7.425781 6.59375 -7.125 C 6.769531 -6.832031 6.859375 -6.5 6.859375 -6.125 C 6.859375 -5.75 6.769531 -5.410156 6.59375 -5.109375 C 6.414062 -4.804688 6.1875 -4.566406 5.90625 -4.390625 Z M 1.1875 -4.609375 L 4.953125 -4.609375 C 5.222656 -4.609375 5.460938 -4.675781 5.671875 -4.8125 C 5.890625 -4.945312 6.0625 -5.128906 6.1875 -5.359375 C 6.3125 -5.597656 6.375 -5.851562 6.375 -6.125 C 6.375 -6.40625 6.3125 -6.660156 6.1875 -6.890625 C 6.0625 -7.117188 5.890625 -7.300781 5.671875 -7.4375 C 5.460938 -7.570312 5.222656 -7.640625 4.953125 -7.640625 L 2.953125 -7.640625 C 2.597656 -7.640625 2.257812 -7.640625 1.9375 -7.640625 C 1.613281 -7.640625 1.363281 -7.640625 1.1875 -7.640625 Z M 4.953125 -0.484375 C 5.273438 -0.484375 5.5625 -0.566406 5.8125 -0.734375 C 6.070312 -0.898438 6.28125 -1.117188 6.4375 -1.390625 C 6.59375 -1.660156 6.671875 -1.96875 6.671875 -2.3125 C 6.671875 -2.644531 6.59375 -2.945312 6.4375 -3.21875 C 6.28125 -3.488281 6.070312 -3.707031 5.8125 -3.875 C 5.5625 -4.039062 5.273438 -4.125 4.953125 -4.125 L 1.1875 -4.125 L 1.1875 -0.484375 L 2.3125 -0.484375 C 2.65625 -0.484375 2.96875 -0.484375 3.25 -0.484375 C 3.53125 -0.484375 3.671875 -0.484375 3.671875 -0.484375 Z M 4.953125 -0.484375 "/></g></g></g><g fill="#ffffff" fill-opacity="1"><g transform="translate(23.611079, 13.787964)"><g/></g></g><g fill="#ffffff" fill-opacity="1"><g transform="translate(27.429219, 13.787964)"><g><path d="M 6.6875 -0.609375 C 6.363281 -0.398438 6.015625 -0.242188 5.640625 -0.140625 C 5.273438 -0.0351562 4.894531 0.015625 4.5 0.015625 C 3.9375 0.015625 3.40625 -0.0859375 2.90625 -0.296875 C 2.414062 -0.503906 1.984375 -0.796875 1.609375 -1.171875 C 1.234375 -1.554688 0.9375 -1.992188 0.71875 -2.484375 C 0.507812 -2.972656 0.40625 -3.503906 0.40625 -4.078125 C 0.40625 -4.640625 0.507812 -5.164062 0.71875 -5.65625 C 0.9375 -6.15625 1.234375 -6.59375 1.609375 -6.96875 C 1.984375 -7.34375 2.414062 -7.632812 2.90625 -7.84375 C 3.40625 -8.0625 3.9375 -8.171875 4.5 -8.171875 C 4.894531 -8.171875 5.273438 -8.117188 5.640625 -8.015625 C 6.015625 -7.910156 6.363281 -7.753906 6.6875 -7.546875 L 6.4375 -7.140625 C 5.84375 -7.515625 5.195312 -7.703125 4.5 -7.703125 C 4.007812 -7.703125 3.539062 -7.609375 3.09375 -7.421875 C 2.65625 -7.234375 2.269531 -6.972656 1.9375 -6.640625 C 1.613281 -6.304688 1.359375 -5.921875 1.171875 -5.484375 C 0.984375 -5.046875 0.890625 -4.578125 0.890625 -4.078125 C 0.890625 -3.578125 0.984375 -3.101562 1.171875 -2.65625 C 1.359375 -2.21875 1.613281 -1.832031 1.9375 -1.5 C 2.269531 -1.175781 2.65625 -0.914062 3.09375 -0.71875 C 3.539062 -0.53125 4.007812 -0.4375 4.5 -0.4375 C 5.195312 -0.4375 5.84375 -0.625 6.4375 -1 Z M 6.6875 -0.609375 "/></g></g></g><g fill="#ffffff" fill-opacity="1"><g transform="translate(34.530026, 13.787964)"><g><path d="M 7.640625 -8.109375 L 7.640625 -3.8125 C 7.640625 -3.113281 7.503906 -2.472656 7.234375 -1.890625 C 6.960938 -1.304688 6.554688 -0.835938 6.015625 -0.484375 C 5.484375 -0.140625 4.820312 0.03125 4.03125 0.03125 C 3.25 0.03125 2.585938 -0.140625 2.046875 -0.484375 C 1.503906 -0.835938 1.09375 -1.304688 0.8125 -1.890625 C 0.539062 -2.472656 0.40625 -3.113281 0.40625 -3.8125 L 0.40625 -8.109375 L 0.890625 -8.109375 L 0.890625 -3.8125 C 0.890625 -3.207031 1.003906 -2.644531 1.234375 -2.125 C 1.460938 -1.613281 1.8125 -1.203125 2.28125 -0.890625 C 2.75 -0.585938 3.332031 -0.4375 4.03125 -0.4375 C 4.726562 -0.4375 5.3125 -0.585938 5.78125 -0.890625 C 6.25 -1.203125 6.597656 -1.613281 6.828125 -2.125 C 7.066406 -2.644531 7.1875 -3.207031 7.1875 -3.8125 L 7.1875 -8.109375 Z M 7.640625 -8.109375 "/></g></g></g><g fill="#ffffff" fill-opacity="1"><g transform="translate(42.585371, 13.787964)"><g><path d="M 4.359375 -4.40625 C 5.148438 -4.25 5.757812 -4.078125 6.1875 -3.890625 C 6.625 -3.710938 6.925781 -3.484375 7.09375 -3.203125 C 7.269531 -2.921875 7.359375 -2.554688 7.359375 -2.109375 C 7.359375 -1.359375 7.078125 -0.804688 6.515625 -0.453125 C 5.953125 -0.109375 5.078125 0.0625 3.890625 0.0625 C 2.648438 0.0625 1.726562 -0.238281 1.125 -0.84375 C 0.644531 -1.351562 0.40625 -2.035156 0.40625 -2.890625 L 0.890625 -2.890625 C 0.890625 -1.234375 1.890625 -0.40625 3.890625 -0.40625 C 4.546875 -0.40625 5.070312 -0.453125 5.46875 -0.546875 C 5.875 -0.648438 6.175781 -0.78125 6.375 -0.9375 C 6.582031 -1.101562 6.71875 -1.285156 6.78125 -1.484375 C 6.851562 -1.691406 6.890625 -1.898438 6.890625 -2.109375 C 6.890625 -2.328125 6.867188 -2.519531 6.828125 -2.6875 C 6.785156 -2.851562 6.679688 -3.007812 6.515625 -3.15625 C 6.359375 -3.300781 6.097656 -3.4375 5.734375 -3.5625 C 5.378906 -3.695312 4.890625 -3.828125 4.265625 -3.953125 C 4.117188 -3.984375 3.984375 -4.007812 3.859375 -4.03125 C 3.734375 -4.050781 3.601562 -4.078125 3.46875 -4.109375 C 3 -4.203125 2.570312 -4.289062 2.1875 -4.375 C 1.8125 -4.46875 1.488281 -4.585938 1.21875 -4.734375 C 0.957031 -4.878906 0.753906 -5.066406 0.609375 -5.296875 C 0.472656 -5.535156 0.40625 -5.847656 0.40625 -6.234375 C 0.40625 -6.660156 0.503906 -7.003906 0.703125 -7.265625 C 0.898438 -7.523438 1.160156 -7.722656 1.484375 -7.859375 C 1.816406 -7.992188 2.1875 -8.082031 2.59375 -8.125 C 3.007812 -8.164062 3.429688 -8.1875 3.859375 -8.1875 C 6.179688 -8.1875 7.34375 -7.441406 7.34375 -5.953125 L 6.875 -5.953125 C 6.875 -6.035156 6.863281 -6.148438 6.84375 -6.296875 C 6.820312 -6.441406 6.765625 -6.59375 6.671875 -6.75 C 6.585938 -6.914062 6.4375 -7.066406 6.21875 -7.203125 C 6.007812 -7.347656 5.710938 -7.46875 5.328125 -7.5625 C 4.953125 -7.65625 4.460938 -7.703125 3.859375 -7.703125 C 3.210938 -7.703125 2.691406 -7.660156 2.296875 -7.578125 C 1.898438 -7.503906 1.597656 -7.394531 1.390625 -7.25 C 1.191406 -7.113281 1.054688 -6.957031 0.984375 -6.78125 C 0.921875 -6.613281 0.890625 -6.429688 0.890625 -6.234375 C 0.890625 -5.867188 0.96875 -5.585938 1.125 -5.390625 C 1.289062 -5.203125 1.566406 -5.050781 1.953125 -4.9375 C 2.347656 -4.820312 2.882812 -4.703125 3.5625 -4.578125 C 3.6875 -4.546875 3.8125 -4.515625 3.9375 -4.484375 C 4.070312 -4.460938 4.210938 -4.4375 4.359375 -4.40625 Z M 4.359375 -4.40625 "/></g></g></g><g fill="#ffffff" fill-opacity="1"><g transform="translate(50.233286, 13.787964)"><g><path d="M 6.828125 -8.125 L 6.828125 -7.640625 L 3.859375 -7.640625 L 3.859375 0 L 3.375 0 L 3.375 -7.640625 L 0.40625 -7.640625 L 0.40625 -8.125 Z M 6.828125 -8.125 "/></g></g></g><g fill="#ffffff" fill-opacity="1"><g transform="translate(56.065257, 13.787964)"><g><path d="M 4.5 -8.140625 C 5.0625 -8.140625 5.585938 -8.035156 6.078125 -7.828125 C 6.578125 -7.617188 7.015625 -7.328125 7.390625 -6.953125 C 7.765625 -6.578125 8.054688 -6.140625 8.265625 -5.640625 C 8.472656 -5.148438 8.578125 -4.625 8.578125 -4.0625 C 8.578125 -3.5 8.472656 -2.96875 8.265625 -2.46875 C 8.054688 -1.976562 7.765625 -1.546875 7.390625 -1.171875 C 7.015625 -0.796875 6.578125 -0.503906 6.078125 -0.296875 C 5.585938 -0.0859375 5.0625 0.015625 4.5 0.015625 C 3.925781 0.015625 3.394531 -0.0859375 2.90625 -0.296875 C 2.414062 -0.503906 1.984375 -0.796875 1.609375 -1.171875 C 1.234375 -1.546875 0.9375 -1.976562 0.71875 -2.46875 C 0.507812 -2.96875 0.40625 -3.5 0.40625 -4.0625 C 0.40625 -4.625 0.507812 -5.148438 0.71875 -5.640625 C 0.9375 -6.140625 1.234375 -6.578125 1.609375 -6.953125 C 1.984375 -7.328125 2.414062 -7.617188 2.90625 -7.828125 C 3.394531 -8.035156 3.925781 -8.140625 4.5 -8.140625 Z M 4.5 -0.4375 C 4.988281 -0.4375 5.453125 -0.53125 5.890625 -0.71875 C 6.328125 -0.914062 6.710938 -1.175781 7.046875 -1.5 C 7.378906 -1.832031 7.640625 -2.21875 7.828125 -2.65625 C 8.015625 -3.09375 8.109375 -3.5625 8.109375 -4.0625 C 8.109375 -4.5625 8.015625 -5.023438 7.828125 -5.453125 C 7.640625 -5.890625 7.378906 -6.273438 7.046875 -6.609375 C 6.710938 -6.941406 6.328125 -7.203125 5.890625 -7.390625 C 5.453125 -7.578125 4.988281 -7.671875 4.5 -7.671875 C 4 -7.671875 3.53125 -7.578125 3.09375 -7.390625 C 2.65625 -7.203125 2.269531 -6.941406 1.9375 -6.609375 C 1.601562 -6.273438 1.34375 -5.890625 1.15625 -5.453125 C 0.976562 -5.023438 0.890625 -4.5625 0.890625 -4.0625 C 0.890625 -3.5625 0.976562 -3.09375 1.15625 -2.65625 C 1.34375 -2.21875 1.601562 -1.832031 1.9375 -1.5 C 2.269531 -1.175781 2.65625 -0.914062 3.09375 -0.71875 C 3.53125 -0.53125 4 -0.4375 4.5 -0.4375 Z M 4.5 -0.4375 "/></g></g></g><g fill="#ffffff" fill-opacity="1"><g transform="translate(65.051851, 13.787964)"><g><path d="M 7.546875 -8.078125 L 7.546875 0.03125 L 7.078125 0.03125 L 7.078125 -7.375 L 4.3125 -3.1875 L 3.9375 -3.203125 L 3.90625 -3.234375 L 1.1875 -7.375 L 1.1875 0.03125 L 0.71875 0.03125 L 0.71875 -8.078125 L 0.703125 -8.109375 L 1.265625 -8.109375 L 4.125 -3.765625 L 7 -8.109375 L 7.5625 -8.109375 Z M 7.546875 -8.078125 "/></g></g></g><g fill="#ffffff" fill-opacity="1"><g transform="translate(73.316725, 13.787964)"><g><path d="M 1.171875 -7.640625 L 1.171875 -3.625 L 4.953125 -3.625 L 4.953125 -3.15625 L 1.171875 -3.15625 L 1.171875 -0.484375 L 5.78125 -0.484375 L 5.78125 0 L 0.703125 0 L 0.703125 -8.109375 L 5.78125 -8.109375 L 5.78125 -7.640625 Z M 1.171875 -7.640625 "/></g></g></g><g fill="#ffffff" fill-opacity="1"><g transform="translate(79.50956, 13.787964)"><g><path d="M 6.875 0 L 6.34375 0 L 4.859375 -3.21875 C 4.609375 -3.175781 4.359375 -3.15625 4.109375 -3.15625 C 4.097656 -3.15625 4.003906 -3.148438 3.828125 -3.140625 C 3.660156 -3.140625 3.441406 -3.140625 3.171875 -3.140625 C 2.910156 -3.140625 2.628906 -3.140625 2.328125 -3.140625 C 2.035156 -3.140625 1.757812 -3.140625 1.5 -3.140625 C 1.25 -3.140625 1.046875 -3.140625 0.890625 -3.140625 L 0.890625 0 L 0.40625 0 L 0.40625 -8.125 L 0.65625 -8.125 C 0.65625 -8.125 0.738281 -8.125 0.90625 -8.125 C 1.070312 -8.125 1.285156 -8.125 1.546875 -8.125 C 1.804688 -8.125 2.082031 -8.125 2.375 -8.125 C 2.664062 -8.125 2.9375 -8.125 3.1875 -8.125 C 3.445312 -8.125 3.660156 -8.117188 3.828125 -8.109375 C 4.003906 -8.109375 4.097656 -8.109375 4.109375 -8.109375 C 4.679688 -8.097656 5.144531 -8.015625 5.5 -7.859375 C 5.863281 -7.703125 6.144531 -7.503906 6.34375 -7.265625 C 6.539062 -7.023438 6.675781 -6.757812 6.75 -6.46875 C 6.832031 -6.1875 6.875 -5.910156 6.875 -5.640625 C 6.875 -5.179688 6.800781 -4.800781 6.65625 -4.5 C 6.519531 -4.195312 6.332031 -3.953125 6.09375 -3.765625 C 5.863281 -3.578125 5.609375 -3.441406 5.328125 -3.359375 Z M 4.09375 -3.625 C 5.613281 -3.65625 6.375 -4.328125 6.375 -5.640625 C 6.375 -6.921875 5.613281 -7.585938 4.09375 -7.640625 L 0.890625 -7.640625 L 0.890625 -3.625 Z M 4.09375 -3.625 "/></g></g></g><g fill="#ffffff" fill-opacity="1"><g transform="translate(86.784977, 13.787964)"><g/></g></g><g fill="#ffffff" fill-opacity="1"><g transform="translate(90.603118, 13.787964)"><g><path d="M 6.890625 0 L 6.375 0 L 5.3125 -2.875 L 1.984375 -2.875 L 0.90625 0 L 0.40625 0 L 3.421875 -8.109375 L 3.875 -8.109375 Z M 5.140625 -3.34375 L 3.640625 -7.375 L 2.15625 -3.34375 Z M 5.140625 -3.34375 "/></g></g></g><g fill="#ffffff" fill-opacity="1"><g transform="translate(96.854154, 13.787964)"><g><path d="M 6.6875 -0.609375 C 6.363281 -0.398438 6.015625 -0.242188 5.640625 -0.140625 C 5.273438 -0.0351562 4.894531 0.015625 4.5 0.015625 C 3.9375 0.015625 3.40625 -0.0859375 2.90625 -0.296875 C 2.414062 -0.503906 1.984375 -0.796875 1.609375 -1.171875 C 1.234375 -1.554688 0.9375 -1.992188 0.71875 -2.484375 C 0.507812 -2.972656 0.40625 -3.503906 0.40625 -4.078125 C 0.40625 -4.640625 0.507812 -5.164062 0.71875 -5.65625 C 0.9375 -6.15625 1.234375 -6.59375 1.609375 -6.96875 C 1.984375 -7.34375 2.414062 -7.632812 2.90625 -7.84375 C 3.40625 -8.0625 3.9375 -8.171875 4.5 -8.171875 C 4.894531 -8.171875 5.273438 -8.117188 5.640625 -8.015625 C 6.015625 -7.910156 6.363281 -7.753906 6.6875 -7.546875 L 6.4375 -7.140625 C 5.84375 -7.515625 5.195312 -7.703125 4.5 -7.703125 C 4.007812 -7.703125 3.539062 -7.609375 3.09375 -7.421875 C 2.65625 -7.234375 2.269531 -6.972656 1.9375 -6.640625 C 1.613281 -6.304688 1.359375 -5.921875 1.171875 -5.484375 C 0.984375 -5.046875 0.890625 -4.578125 0.890625 -4.078125 C 0.890625 -3.578125 0.984375 -3.101562 1.171875 -2.65625 C 1.359375 -2.21875 1.613281 -1.832031 1.9375 -1.5 C 2.269531 -1.175781 2.65625 -0.914062 3.09375 -0.71875 C 3.539062 -0.53125 4.007812 -0.4375 4.5 -0.4375 C 5.195312 -0.4375 5.84375 -0.625 6.4375 -1 Z M 6.6875 -0.609375 "/></g></g></g><g fill="#ffffff" fill-opacity="1"><g transform="translate(103.372927, 13.787964)"><g><path d="M 8.578125 -4.0625 C 8.578125 -3.34375 8.40625 -2.675781 8.0625 -2.0625 C 7.726562 -1.457031 7.273438 -0.972656 6.703125 -0.609375 L 7.234375 0.328125 L 6.8125 0.5625 L 6.28125 -0.390625 C 5.738281 -0.117188 5.144531 0.015625 4.5 0.015625 C 3.9375 0.015625 3.40625 -0.0859375 2.90625 -0.296875 C 2.414062 -0.503906 1.984375 -0.796875 1.609375 -1.171875 C 1.234375 -1.546875 0.9375 -1.976562 0.71875 -2.46875 C 0.507812 -2.96875 0.40625 -3.5 0.40625 -4.0625 C 0.40625 -4.625 0.507812 -5.148438 0.71875 -5.640625 C 0.9375 -6.140625 1.234375 -6.578125 1.609375 -6.953125 C 1.984375 -7.328125 2.414062 -7.617188 2.90625 -7.828125 C 3.40625 -8.035156 3.9375 -8.140625 4.5 -8.140625 C 5.0625 -8.140625 5.585938 -8.035156 6.078125 -7.828125 C 6.578125 -7.617188 7.015625 -7.328125 7.390625 -6.953125 C 7.765625 -6.578125 8.054688 -6.140625 8.265625 -5.640625 C 8.472656 -5.148438 8.578125 -4.625 8.578125 -4.0625 Z M 6.46875 -1.03125 C 6.957031 -1.351562 7.351562 -1.78125 7.65625 -2.3125 C 7.957031 -2.84375 8.109375 -3.425781 8.109375 -4.0625 C 8.109375 -4.5625 8.015625 -5.023438 7.828125 -5.453125 C 7.640625 -5.890625 7.378906 -6.273438 7.046875 -6.609375 C 6.710938 -6.941406 6.328125 -7.203125 5.890625 -7.390625 C 5.453125 -7.578125 4.988281 -7.671875 4.5 -7.671875 C 4 -7.671875 3.53125 -7.578125 3.09375 -7.390625 C 2.65625 -7.203125 2.269531 -6.941406 1.9375 -6.609375 C 1.601562 -6.273438 1.34375 -5.890625 1.15625 -5.453125 C 0.976562 -5.023438 0.890625 -4.5625 0.890625 -4.0625 C 0.890625 -3.5625 0.976562 -3.09375 1.15625 -2.65625 C 1.34375 -2.21875 1.601562 -1.832031 1.9375 -1.5 C 2.269531 -1.175781 2.65625 -0.914062 3.09375 -0.71875 C 3.53125 -0.53125 4 -0.4375 4.5 -0.4375 C 5.050781 -0.4375 5.566406 -0.554688 6.046875 -0.796875 L 5.546875 -1.71875 L 5.953125 -1.953125 Z M 6.46875 -1.03125 "/></g></g></g><g fill="#ffffff" fill-opacity="1"><g transform="translate(112.592332, 13.787964)"><g><path d="M 7.640625 -8.109375 L 7.640625 -3.8125 C 7.640625 -3.113281 7.503906 -2.472656 7.234375 -1.890625 C 6.960938 -1.304688 6.554688 -0.835938 6.015625 -0.484375 C 5.484375 -0.140625 4.820312 0.03125 4.03125 0.03125 C 3.25 0.03125 2.585938 -0.140625 2.046875 -0.484375 C 1.503906 -0.835938 1.09375 -1.304688 0.8125 -1.890625 C 0.539062 -2.472656 0.40625 -3.113281 0.40625 -3.8125 L 0.40625 -8.109375 L 0.890625 -8.109375 L 0.890625 -3.8125 C 0.890625 -3.207031 1.003906 -2.644531 1.234375 -2.125 C 1.460938 -1.613281 1.8125 -1.203125 2.28125 -0.890625 C 2.75 -0.585938 3.332031 -0.4375 4.03125 -0.4375 C 4.726562 -0.4375 5.3125 -0.585938 5.78125 -0.890625 C 6.25 -1.203125 6.597656 -1.613281 6.828125 -2.125 C 7.066406 -2.644531 7.1875 -3.207031 7.1875 -3.8125 L 7.1875 -8.109375 Z M 7.640625 -8.109375 "/></g></g></g><g clip-path="url(#222e3656da)"><g fill="#ffffff" fill-opacity="1"><g transform="translate(120.647678, 13.787964)"><g><path d="M 1.171875 -12.984375 C 1.234375 -12.984375 1.285156 -12.957031 1.328125 -12.90625 C 1.378906 -12.863281 1.40625 -12.816406 1.40625 -12.765625 C 1.40625 -12.703125 1.378906 -12.644531 1.328125 -12.59375 C 1.285156 -12.550781 1.234375 -12.53125 1.171875 -12.53125 C 1.109375 -12.53125 1.050781 -12.550781 1 -12.59375 C 0.957031 -12.644531 0.9375 -12.703125 0.9375 -12.765625 C 0.9375 -12.816406 0.957031 -12.863281 1 -12.90625 C 1.050781 -12.957031 1.109375 -12.984375 1.171875 -12.984375 Z M 0.703125 0 L 0.703125 -8.109375 L 1.171875 -8.109375 L 1.171875 0 Z M 0.703125 0 "/></g></g></g></g><g fill="#ffffff" fill-opacity="1"><g transform="translate(122.521823, 13.787964)"><g><path d="M 4.359375 -4.40625 C 5.148438 -4.25 5.757812 -4.078125 6.1875 -3.890625 C 6.625 -3.710938 6.925781 -3.484375 7.09375 -3.203125 C 7.269531 -2.921875 7.359375 -2.554688 7.359375 -2.109375 C 7.359375 -1.359375 7.078125 -0.804688 6.515625 -0.453125 C 5.953125 -0.109375 5.078125 0.0625 3.890625 0.0625 C 2.648438 0.0625 1.726562 -0.238281 1.125 -0.84375 C 0.644531 -1.351562 0.40625 -2.035156 0.40625 -2.890625 L 0.890625 -2.890625 C 0.890625 -1.234375 1.890625 -0.40625 3.890625 -0.40625 C 4.546875 -0.40625 5.070312 -0.453125 5.46875 -0.546875 C 5.875 -0.648438 6.175781 -0.78125 6.375 -0.9375 C 6.582031 -1.101562 6.71875 -1.285156 6.78125 -1.484375 C 6.851562 -1.691406 6.890625 -1.898438 6.890625 -2.109375 C 6.890625 -2.328125 6.867188 -2.519531 6.828125 -2.6875 C 6.785156 -2.851562 6.679688 -3.007812 6.515625 -3.15625 C 6.359375 -3.300781 6.097656 -3.4375 5.734375 -3.5625 C 5.378906 -3.695312 4.890625 -3.828125 4.265625 -3.953125 C 4.117188 -3.984375 3.984375 -4.007812 3.859375 -4.03125 C 3.734375 -4.050781 3.601562 -4.078125 3.46875 -4.109375 C 3 -4.203125 2.570312 -4.289062 2.1875 -4.375 C 1.8125 -4.46875 1.488281 -4.585938 1.21875 -4.734375 C 0.957031 -4.878906 0.753906 -5.066406 0.609375 -5.296875 C 0.472656 -5.535156 0.40625 -5.847656 0.40625 -6.234375 C 0.40625 -6.660156 0.503906 -7.003906 0.703125 -7.265625 C 0.898438 -7.523438 1.160156 -7.722656 1.484375 -7.859375 C 1.816406 -7.992188 2.1875 -8.082031 2.59375 -8.125 C 3.007812 -8.164062 3.429688 -8.1875 3.859375 -8.1875 C 6.179688 -8.1875 7.34375 -7.441406 7.34375 -5.953125 L 6.875 -5.953125 C 6.875 -6.035156 6.863281 -6.148438 6.84375 -6.296875 C 6.820312 -6.441406 6.765625 -6.59375 6.671875 -6.75 C 6.585938 -6.914062 6.4375 -7.066406 6.21875 -7.203125 C 6.007812 -7.347656 5.710938 -7.46875 5.328125 -7.5625 C 4.953125 -7.65625 4.460938 -7.703125 3.859375 -7.703125 C 3.210938 -7.703125 2.691406 -7.660156 2.296875 -7.578125 C 1.898438 -7.503906 1.597656 -7.394531 1.390625 -7.25 C 1.191406 -7.113281 1.054688 -6.957031 0.984375 -6.78125 C 0.921875 -6.613281 0.890625 -6.429688 0.890625 -6.234375 C 0.890625 -5.867188 0.96875 -5.585938 1.125 -5.390625 C 1.289062 -5.203125 1.566406 -5.050781 1.953125 -4.9375 C 2.347656 -4.820312 2.882812 -4.703125 3.5625 -4.578125 C 3.6875 -4.546875 3.8125 -4.515625 3.9375 -4.484375 C 4.070312 -4.460938 4.210938 -4.4375 4.359375 -4.40625 Z M 4.359375 -4.40625 "/></g></g></g><g clip-path="url(#d571430a7a)"><g fill="#ffffff" fill-opacity="1"><g transform="translate(130.286148, 13.787964)"><g><path d="M 1.171875 -12.984375 C 1.234375 -12.984375 1.285156 -12.957031 1.328125 -12.90625 C 1.378906 -12.863281 1.40625 -12.816406 1.40625 -12.765625 C 1.40625 -12.703125 1.378906 -12.644531 1.328125 -12.59375 C 1.285156 -12.550781 1.234375 -12.53125 1.171875 -12.53125 C 1.109375 -12.53125 1.050781 -12.550781 1 -12.59375 C 0.957031 -12.644531 0.9375 -12.703125 0.9375 -12.765625 C 0.9375 -12.816406 0.957031 -12.863281 1 -12.90625 C 1.050781 -12.957031 1.109375 -12.984375 1.171875 -12.984375 Z M 0.703125 0 L 0.703125 -8.109375 L 1.171875 -8.109375 L 1.171875 0 Z M 0.703125 0 "/></g></g></g></g><g fill="#ffffff" fill-opacity="1"><g transform="translate(132.160293, 13.787964)"><g><path d="M 6.828125 -8.125 L 6.828125 -7.640625 L 3.859375 -7.640625 L 3.859375 0 L 3.375 0 L 3.375 -7.640625 L 0.40625 -7.640625 L 0.40625 -8.125 Z M 6.828125 -8.125 "/></g></g></g><g clip-path="url(#e80cbc81e9)"><g fill="#ffffff" fill-opacity="1"><g transform="translate(139.389151, 13.787964)"><g><path d="M 1.171875 -12.984375 C 1.234375 -12.984375 1.285156 -12.957031 1.328125 -12.90625 C 1.378906 -12.863281 1.40625 -12.816406 1.40625 -12.765625 C 1.40625 -12.703125 1.378906 -12.644531 1.328125 -12.59375 C 1.285156 -12.550781 1.234375 -12.53125 1.171875 -12.53125 C 1.109375 -12.53125 1.050781 -12.550781 1 -12.59375 C 0.957031 -12.644531 0.9375 -12.703125 0.9375 -12.765625 C 0.9375 -12.816406 0.957031 -12.863281 1 -12.90625 C 1.050781 -12.957031 1.109375 -12.984375 1.171875 -12.984375 Z M 0.703125 0 L 0.703125 -8.109375 L 1.171875 -8.109375 L 1.171875 0 Z M 0.703125 0 "/></g></g></g></g><g fill="#ffffff" fill-opacity="1"><g transform="translate(141.263296, 13.787964)"><g><path d="M 4.5 -8.140625 C 5.0625 -8.140625 5.585938 -8.035156 6.078125 -7.828125 C 6.578125 -7.617188 7.015625 -7.328125 7.390625 -6.953125 C 7.765625 -6.578125 8.054688 -6.140625 8.265625 -5.640625 C 8.472656 -5.148438 8.578125 -4.625 8.578125 -4.0625 C 8.578125 -3.5 8.472656 -2.96875 8.265625 -2.46875 C 8.054688 -1.976562 7.765625 -1.546875 7.390625 -1.171875 C 7.015625 -0.796875 6.578125 -0.503906 6.078125 -0.296875 C 5.585938 -0.0859375 5.0625 0.015625 4.5 0.015625 C 3.925781 0.015625 3.394531 -0.0859375 2.90625 -0.296875 C 2.414062 -0.503906 1.984375 -0.796875 1.609375 -1.171875 C 1.234375 -1.546875 0.9375 -1.976562 0.71875 -2.46875 C 0.507812 -2.96875 0.40625 -3.5 0.40625 -4.0625 C 0.40625 -4.625 0.507812 -5.148438 0.71875 -5.640625 C 0.9375 -6.140625 1.234375 -6.578125 1.609375 -6.953125 C 1.984375 -7.328125 2.414062 -7.617188 2.90625 -7.828125 C 3.394531 -8.035156 3.925781 -8.140625 4.5 -8.140625 Z M 4.5 -0.4375 C 4.988281 -0.4375 5.453125 -0.53125 5.890625 -0.71875 C 6.328125 -0.914062 6.710938 -1.175781 7.046875 -1.5 C 7.378906 -1.832031 7.640625 -2.21875 7.828125 -2.65625 C 8.015625 -3.09375 8.109375 -3.5625 8.109375 -4.0625 C 8.109375 -4.5625 8.015625 -5.023438 7.828125 -5.453125 C 7.640625 -5.890625 7.378906 -6.273438 7.046875 -6.609375 C 6.710938 -6.941406 6.328125 -7.203125 5.890625 -7.390625 C 5.453125 -7.578125 4.988281 -7.671875 4.5 -7.671875 C 4 -7.671875 3.53125 -7.578125 3.09375 -7.390625 C 2.65625 -7.203125 2.269531 -6.941406 1.9375 -6.609375 C 1.601562 -6.273438 1.34375 -5.890625 1.15625 -5.453125 C 0.976562 -5.023438 0.890625 -4.5625 0.890625 -4.0625 C 0.890625 -3.5625 0.976562 -3.09375 1.15625 -2.65625 C 1.34375 -2.21875 1.601562 -1.832031 1.9375 -1.5 C 2.269531 -1.175781 2.65625 -0.914062 3.09375 -0.71875 C 3.53125 -0.53125 4 -0.4375 4.5 -0.4375 Z M 4.5 -0.4375 "/></g></g></g><g fill="#ffffff" fill-opacity="1"><g transform="translate(150.133479, 13.787964)"><g><path d="M 7.484375 -8.109375 L 7.484375 0 L 6.890625 0 L 1.171875 -7.46875 L 1.171875 0 L 0.703125 0 L 0.703125 -8.109375 L 1.265625 -8.109375 L 7 -0.609375 L 7 -8.109375 Z M 7.484375 -8.109375 "/></g></g></g></g></g></svg>