<svg xmlns="http://www.w3.org/2000/svg" xmlns:xlink="http://www.w3.org/1999/xlink" width="500" zoomAndPan="magnify" viewBox="0 0 375 374.999991" height="500" preserveAspectRatio="xMidYMid meet" version="1.0"><defs><g/><clipPath id="061ce6ae8f"><rect x="0" width="241" y="0" height="26"/></clipPath></defs><path fill="#0cc0df" d="M 319.566406 264.046875 L 258.777344 158.78125 L 231.976562 205.253906 L 279.304688 287.257812 C 283.582031 294.671875 291.394531 298.890625 299.433594 298.890625 C 303.371094 298.890625 307.363281 297.863281 311.011719 295.753906 C 322.1875 289.308594 325.953125 275.167969 319.566406 264.046875 Z M 319.566406 264.046875 " fill-opacity="1" fill-rule="nonzero"/><path fill="#0cc0df" d="M 276.910156 100.957031 L 251.136719 145.605469 L 224.277344 192.082031 L 182.761719 263.992188 C 170.332031 285.546875 147.121094 298.945312 122.257812 298.945312 C 96.996094 298.945312 74.355469 285.886719 61.699219 263.992188 C 49.039062 242.148438 49.039062 215.976562 61.699219 194.078125 L 134.347656 68.335938 C 141.875 55.277344 155.390625 47.464844 170.445312 47.464844 C 185.5 47.464844 199.015625 55.277344 206.597656 68.335938 L 209.222656 72.898438 L 216.75 85.902344 L 189.890625 132.375 L 170.445312 98.730469 L 102.015625 217.289062 C 95.914062 227.835938 99.960938 237.1875 102.015625 240.722656 C 104.066406 244.261719 110.113281 252.472656 122.316406 252.472656 C 130.640625 252.472656 138.453125 247.964844 142.558594 240.722656 L 197.476562 145.605469 L 224.332031 99.132812 L 236.652344 77.746094 C 243.09375 66.625 257.292969 62.804688 268.414062 69.25 C 279.535156 75.636719 283.355469 89.835938 276.910156 100.957031 Z M 276.910156 100.957031 " fill-opacity="1" fill-rule="nonzero"/><path fill="#0cc0df" d="M 265.621094 45.753906 C 278.050781 73.753906 319.507812 56.589844 308.558594 27.964844 C 296.070312 0.0234375 254.613281 17.1875 265.621094 45.753906 Z M 265.621094 45.753906 " fill-opacity="1" fill-rule="nonzero"/><g transform="matrix(1, 0, 0, 1, 67, 300)"><g clip-path="url(#061ce6ae8f)"><g fill="#0cc0df" fill-opacity="1"><g transform="translate(0.966274, 20.877961)"><g><path d="M 8.953125 -6.65625 C 9.503906 -6.375 9.957031 -5.945312 10.3125 -5.375 C 10.675781 -4.8125 10.859375 -4.1875 10.859375 -3.5 C 10.859375 -2.863281 10.707031 -2.28125 10.40625 -1.75 C 10.101562 -1.21875 9.695312 -0.789062 9.1875 -0.46875 C 8.6875 -0.15625 8.128906 0 7.515625 0 L 3.515625 0 C 3.171875 0 2.84375 0 2.53125 0 C 2.21875 0 1.957031 0 1.75 0 C 1.550781 0 1.445312 0 1.4375 0 L 1.0625 0 L 1.0625 -12.328125 L 4.484375 -12.328125 C 4.992188 -12.328125 5.472656 -12.328125 5.921875 -12.328125 C 6.378906 -12.328125 6.753906 -12.320312 7.046875 -12.3125 C 7.347656 -12.3125 7.503906 -12.3125 7.515625 -12.3125 C 8.046875 -12.3125 8.53125 -12.175781 8.96875 -11.90625 C 9.40625 -11.632812 9.753906 -11.269531 10.015625 -10.8125 C 10.273438 -10.363281 10.40625 -9.851562 10.40625 -9.28125 C 10.40625 -8.71875 10.269531 -8.207031 10 -7.75 C 9.738281 -7.289062 9.390625 -6.925781 8.953125 -6.65625 Z M 1.796875 -6.984375 L 7.515625 -6.984375 C 7.921875 -6.984375 8.285156 -7.085938 8.609375 -7.296875 C 8.929688 -7.503906 9.1875 -7.785156 9.375 -8.140625 C 9.570312 -8.492188 9.671875 -8.875 9.671875 -9.28125 C 9.671875 -9.707031 9.570312 -10.09375 9.375 -10.4375 C 9.1875 -10.789062 8.929688 -11.066406 8.609375 -11.265625 C 8.285156 -11.472656 7.921875 -11.578125 7.515625 -11.578125 L 4.484375 -11.578125 C 3.941406 -11.578125 3.425781 -11.578125 2.9375 -11.578125 C 2.445312 -11.578125 2.066406 -11.578125 1.796875 -11.578125 Z M 7.515625 -0.734375 C 8.003906 -0.734375 8.441406 -0.859375 8.828125 -1.109375 C 9.210938 -1.359375 9.519531 -1.691406 9.75 -2.109375 C 9.988281 -2.523438 10.109375 -2.988281 10.109375 -3.5 C 10.109375 -4 9.988281 -4.457031 9.75 -4.875 C 9.519531 -5.300781 9.210938 -5.640625 8.828125 -5.890625 C 8.441406 -6.140625 8.003906 -6.265625 7.515625 -6.265625 L 1.796875 -6.265625 L 1.796875 -0.734375 L 3.515625 -0.734375 C 4.035156 -0.734375 4.503906 -0.734375 4.921875 -0.734375 C 5.347656 -0.734375 5.566406 -0.734375 5.578125 -0.734375 Z M 7.515625 -0.734375 "/></g></g></g><g fill="#0cc0df" fill-opacity="1"><g transform="translate(12.440931, 20.877961)"><g><path d="M 1.953125 -0.71875 L 11.21875 -0.71875 L 11.21875 0 L 0.625 0 L 0.625 -0.8125 L 0.640625 -0.828125 C 0.734375 -0.878906 0.828125 -0.929688 0.921875 -0.984375 C 1.015625 -1.035156 1.109375 -1.082031 1.203125 -1.125 C 1.722656 -1.394531 2.304688 -1.707031 2.953125 -2.0625 C 3.597656 -2.425781 4.265625 -2.820312 4.953125 -3.25 C 5.640625 -3.6875 6.296875 -4.140625 6.921875 -4.609375 C 9.085938 -6.253906 10.171875 -7.769531 10.171875 -9.15625 C 10.171875 -9.96875 9.679688 -10.609375 8.703125 -11.078125 C 8.304688 -11.242188 7.84375 -11.378906 7.3125 -11.484375 C 6.78125 -11.597656 6.242188 -11.65625 5.703125 -11.65625 C 5.304688 -11.65625 4.867188 -11.609375 4.390625 -11.515625 C 3.910156 -11.429688 3.457031 -11.289062 3.03125 -11.09375 C 2.601562 -10.90625 2.25 -10.65625 1.96875 -10.34375 C 1.6875 -10.03125 1.546875 -9.648438 1.546875 -9.203125 L 0.828125 -9.203125 C 0.828125 -10.242188 1.40625 -11.066406 2.5625 -11.671875 C 3 -11.890625 3.488281 -12.0625 4.03125 -12.1875 C 4.582031 -12.3125 5.140625 -12.375 5.703125 -12.375 C 5.890625 -12.375 6.160156 -12.359375 6.515625 -12.328125 C 6.867188 -12.296875 7.265625 -12.238281 7.703125 -12.15625 C 8.148438 -12.070312 8.582031 -11.925781 9 -11.71875 C 10.257812 -11.132812 10.890625 -10.28125 10.890625 -9.15625 C 10.890625 -8.457031 10.6875 -7.773438 10.28125 -7.109375 C 9.882812 -6.441406 9.359375 -5.796875 8.703125 -5.171875 C 8.054688 -4.554688 7.332031 -3.976562 6.53125 -3.4375 C 5.738281 -2.894531 4.945312 -2.394531 4.15625 -1.9375 C 3.363281 -1.476562 2.628906 -1.070312 1.953125 -0.71875 Z M 1.953125 -0.71875 "/></g></g></g><g fill="#0cc0df" fill-opacity="1"><g transform="translate(24.268652, 20.877961)"><g><path d="M 8.953125 -6.65625 C 9.503906 -6.375 9.957031 -5.945312 10.3125 -5.375 C 10.675781 -4.8125 10.859375 -4.1875 10.859375 -3.5 C 10.859375 -2.863281 10.707031 -2.28125 10.40625 -1.75 C 10.101562 -1.21875 9.695312 -0.789062 9.1875 -0.46875 C 8.6875 -0.15625 8.128906 0 7.515625 0 L 3.515625 0 C 3.171875 0 2.84375 0 2.53125 0 C 2.21875 0 1.957031 0 1.75 0 C 1.550781 0 1.445312 0 1.4375 0 L 1.0625 0 L 1.0625 -12.328125 L 4.484375 -12.328125 C 4.992188 -12.328125 5.472656 -12.328125 5.921875 -12.328125 C 6.378906 -12.328125 6.753906 -12.320312 7.046875 -12.3125 C 7.347656 -12.3125 7.503906 -12.3125 7.515625 -12.3125 C 8.046875 -12.3125 8.53125 -12.175781 8.96875 -11.90625 C 9.40625 -11.632812 9.753906 -11.269531 10.015625 -10.8125 C 10.273438 -10.363281 10.40625 -9.851562 10.40625 -9.28125 C 10.40625 -8.71875 10.269531 -8.207031 10 -7.75 C 9.738281 -7.289062 9.390625 -6.925781 8.953125 -6.65625 Z M 1.796875 -6.984375 L 7.515625 -6.984375 C 7.921875 -6.984375 8.285156 -7.085938 8.609375 -7.296875 C 8.929688 -7.503906 9.1875 -7.785156 9.375 -8.140625 C 9.570312 -8.492188 9.671875 -8.875 9.671875 -9.28125 C 9.671875 -9.707031 9.570312 -10.09375 9.375 -10.4375 C 9.1875 -10.789062 8.929688 -11.066406 8.609375 -11.265625 C 8.285156 -11.472656 7.921875 -11.578125 7.515625 -11.578125 L 4.484375 -11.578125 C 3.941406 -11.578125 3.425781 -11.578125 2.9375 -11.578125 C 2.445312 -11.578125 2.066406 -11.578125 1.796875 -11.578125 Z M 7.515625 -0.734375 C 8.003906 -0.734375 8.441406 -0.859375 8.828125 -1.109375 C 9.210938 -1.359375 9.519531 -1.691406 9.75 -2.109375 C 9.988281 -2.523438 10.109375 -2.988281 10.109375 -3.5 C 10.109375 -4 9.988281 -4.457031 9.75 -4.875 C 9.519531 -5.300781 9.210938 -5.640625 8.828125 -5.890625 C 8.441406 -6.140625 8.003906 -6.265625 7.515625 -6.265625 L 1.796875 -6.265625 L 1.796875 -0.734375 L 3.515625 -0.734375 C 4.035156 -0.734375 4.503906 -0.734375 4.921875 -0.734375 C 5.347656 -0.734375 5.566406 -0.734375 5.578125 -0.734375 Z M 7.515625 -0.734375 "/></g></g></g><g fill="#0cc0df" fill-opacity="1"><g transform="translate(35.743308, 20.877961)"><g/></g></g><g fill="#0cc0df" fill-opacity="1"><g transform="translate(41.533595, 20.877961)"><g><path d="M 10.15625 -0.921875 C 9.65625 -0.597656 9.125 -0.359375 8.5625 -0.203125 C 8 -0.046875 7.421875 0.03125 6.828125 0.03125 C 5.972656 0.03125 5.171875 -0.128906 4.421875 -0.453125 C 3.671875 -0.773438 3.007812 -1.222656 2.4375 -1.796875 C 1.875 -2.367188 1.429688 -3.023438 1.109375 -3.765625 C 0.785156 -4.515625 0.625 -5.320312 0.625 -6.1875 C 0.625 -7.039062 0.785156 -7.84375 1.109375 -8.59375 C 1.429688 -9.34375 1.875 -10 2.4375 -10.5625 C 3.007812 -11.132812 3.671875 -11.582031 4.421875 -11.90625 C 5.171875 -12.226562 5.972656 -12.390625 6.828125 -12.390625 C 7.421875 -12.390625 8 -12.3125 8.5625 -12.15625 C 9.125 -12 9.65625 -11.757812 10.15625 -11.4375 L 9.765625 -10.84375 C 8.867188 -11.40625 7.890625 -11.6875 6.828125 -11.6875 C 6.078125 -11.6875 5.367188 -11.539062 4.703125 -11.25 C 4.035156 -10.96875 3.453125 -10.578125 2.953125 -10.078125 C 2.453125 -9.578125 2.054688 -8.992188 1.765625 -8.328125 C 1.484375 -7.660156 1.34375 -6.945312 1.34375 -6.1875 C 1.34375 -5.425781 1.484375 -4.707031 1.765625 -4.03125 C 2.054688 -3.363281 2.453125 -2.78125 2.953125 -2.28125 C 3.453125 -1.78125 4.035156 -1.382812 4.703125 -1.09375 C 5.367188 -0.8125 6.078125 -0.671875 6.828125 -0.671875 C 7.890625 -0.671875 8.867188 -0.953125 9.765625 -1.515625 Z M 10.15625 -0.921875 "/></g></g></g><g fill="#0cc0df" fill-opacity="1"><g transform="translate(52.302113, 20.877961)"><g><path d="M 11.59375 -12.3125 L 11.59375 -5.796875 C 11.59375 -4.722656 11.382812 -3.742188 10.96875 -2.859375 C 10.550781 -1.972656 9.9375 -1.265625 9.125 -0.734375 C 8.3125 -0.210938 7.304688 0.046875 6.109375 0.046875 C 4.921875 0.046875 3.914062 -0.210938 3.09375 -0.734375 C 2.28125 -1.265625 1.664062 -1.972656 1.25 -2.859375 C 0.832031 -3.742188 0.625 -4.722656 0.625 -5.796875 L 0.625 -12.3125 L 1.34375 -12.3125 L 1.34375 -5.796875 C 1.34375 -4.859375 1.519531 -4 1.875 -3.21875 C 2.226562 -2.445312 2.753906 -1.828125 3.453125 -1.359375 C 4.160156 -0.898438 5.046875 -0.671875 6.109375 -0.671875 C 7.171875 -0.671875 8.054688 -0.898438 8.765625 -1.359375 C 9.472656 -1.828125 10.003906 -2.445312 10.359375 -3.21875 C 10.710938 -4 10.890625 -4.859375 10.890625 -5.796875 L 10.890625 -12.3125 Z M 11.59375 -12.3125 "/></g></g></g><g fill="#0cc0df" fill-opacity="1"><g transform="translate(64.518207, 20.877961)"><g><path d="M 6.609375 -6.6875 C 7.816406 -6.445312 8.742188 -6.1875 9.390625 -5.90625 C 10.046875 -5.625 10.503906 -5.269531 10.765625 -4.84375 C 11.023438 -4.425781 11.15625 -3.878906 11.15625 -3.203125 C 11.15625 -2.066406 10.726562 -1.226562 9.875 -0.6875 C 9.019531 -0.15625 7.691406 0.109375 5.890625 0.109375 C 4.015625 0.109375 2.625 -0.351562 1.71875 -1.28125 C 0.988281 -2.050781 0.625 -3.082031 0.625 -4.375 L 1.34375 -4.375 C 1.34375 -1.875 2.859375 -0.625 5.890625 -0.625 C 6.890625 -0.625 7.691406 -0.695312 8.296875 -0.84375 C 8.910156 -0.988281 9.367188 -1.179688 9.671875 -1.421875 C 9.984375 -1.671875 10.191406 -1.945312 10.296875 -2.25 C 10.398438 -2.5625 10.453125 -2.878906 10.453125 -3.203125 C 10.453125 -3.523438 10.421875 -3.816406 10.359375 -4.078125 C 10.296875 -4.335938 10.140625 -4.578125 9.890625 -4.796875 C 9.640625 -5.015625 9.242188 -5.21875 8.703125 -5.40625 C 8.160156 -5.601562 7.414062 -5.796875 6.46875 -5.984375 C 6.25 -6.035156 6.039062 -6.078125 5.84375 -6.109375 C 5.65625 -6.140625 5.460938 -6.179688 5.265625 -6.234375 C 4.546875 -6.367188 3.894531 -6.503906 3.3125 -6.640625 C 2.738281 -6.773438 2.25 -6.953125 1.84375 -7.171875 C 1.445312 -7.390625 1.144531 -7.675781 0.9375 -8.03125 C 0.726562 -8.394531 0.625 -8.875 0.625 -9.46875 C 0.625 -10.113281 0.769531 -10.632812 1.0625 -11.03125 C 1.363281 -11.425781 1.765625 -11.722656 2.265625 -11.921875 C 2.765625 -12.117188 3.328125 -12.25 3.953125 -12.3125 C 4.578125 -12.375 5.210938 -12.40625 5.859375 -12.40625 C 9.378906 -12.40625 11.140625 -11.273438 11.140625 -9.015625 L 10.421875 -9.015625 C 10.421875 -9.148438 10.40625 -9.328125 10.375 -9.546875 C 10.34375 -9.773438 10.257812 -10.007812 10.125 -10.25 C 9.988281 -10.488281 9.757812 -10.71875 9.4375 -10.9375 C 9.113281 -11.15625 8.660156 -11.332031 8.078125 -11.46875 C 7.503906 -11.613281 6.765625 -11.6875 5.859375 -11.6875 C 4.867188 -11.6875 4.070312 -11.625 3.46875 -11.5 C 2.875 -11.375 2.421875 -11.207031 2.109375 -11 C 1.804688 -10.800781 1.601562 -10.566406 1.5 -10.296875 C 1.394531 -10.035156 1.34375 -9.757812 1.34375 -9.46875 C 1.34375 -8.914062 1.460938 -8.488281 1.703125 -8.1875 C 1.953125 -7.894531 2.375 -7.660156 2.96875 -7.484375 C 3.5625 -7.316406 4.375 -7.132812 5.40625 -6.9375 C 5.59375 -6.894531 5.785156 -6.851562 5.984375 -6.8125 C 6.179688 -6.78125 6.390625 -6.738281 6.609375 -6.6875 Z M 6.609375 -6.6875 "/></g></g></g><g fill="#0cc0df" fill-opacity="1"><g transform="translate(76.116425, 20.877961)"><g><path d="M 10.34375 -12.328125 L 10.34375 -11.59375 L 5.84375 -11.59375 L 5.84375 0 L 5.125 0 L 5.125 -11.59375 L 0.625 -11.59375 L 0.625 -12.328125 Z M 10.34375 -12.328125 "/></g></g></g><g fill="#0cc0df" fill-opacity="1"><g transform="translate(84.960728, 20.877961)"><g><path d="M 6.8125 -12.359375 C 7.675781 -12.359375 8.476562 -12.195312 9.21875 -11.875 C 9.96875 -11.550781 10.628906 -11.101562 11.203125 -10.53125 C 11.773438 -9.96875 12.21875 -9.3125 12.53125 -8.5625 C 12.851562 -7.8125 13.015625 -7.007812 13.015625 -6.15625 C 13.015625 -5.300781 12.851562 -4.5 12.53125 -3.75 C 12.21875 -3 11.773438 -2.34375 11.203125 -1.78125 C 10.628906 -1.21875 9.96875 -0.773438 9.21875 -0.453125 C 8.476562 -0.128906 7.675781 0.03125 6.8125 0.03125 C 5.957031 0.03125 5.15625 -0.128906 4.40625 -0.453125 C 3.65625 -0.773438 3 -1.21875 2.4375 -1.78125 C 1.875 -2.34375 1.429688 -3 1.109375 -3.75 C 0.785156 -4.5 0.625 -5.300781 0.625 -6.15625 C 0.625 -7.007812 0.785156 -7.8125 1.109375 -8.5625 C 1.429688 -9.3125 1.875 -9.96875 2.4375 -10.53125 C 3 -11.101562 3.65625 -11.550781 4.40625 -11.875 C 5.15625 -12.195312 5.957031 -12.359375 6.8125 -12.359375 Z M 6.8125 -0.671875 C 7.570312 -0.671875 8.28125 -0.8125 8.9375 -1.09375 C 9.59375 -1.382812 10.171875 -1.78125 10.671875 -2.28125 C 11.179688 -2.78125 11.578125 -3.363281 11.859375 -4.03125 C 12.140625 -4.695312 12.28125 -5.40625 12.28125 -6.15625 C 12.28125 -6.914062 12.140625 -7.625 11.859375 -8.28125 C 11.578125 -8.9375 11.179688 -9.515625 10.671875 -10.015625 C 10.171875 -10.523438 9.59375 -10.921875 8.9375 -11.203125 C 8.28125 -11.492188 7.570312 -11.640625 6.8125 -11.640625 C 6.0625 -11.640625 5.351562 -11.492188 4.6875 -11.203125 C 4.03125 -10.921875 3.445312 -10.523438 2.9375 -10.015625 C 2.4375 -9.515625 2.046875 -8.9375 1.765625 -8.28125 C 1.484375 -7.625 1.34375 -6.914062 1.34375 -6.15625 C 1.34375 -5.40625 1.484375 -4.695312 1.765625 -4.03125 C 2.046875 -3.363281 2.4375 -2.78125 2.9375 -2.28125 C 3.445312 -1.78125 4.03125 -1.382812 4.6875 -1.09375 C 5.351562 -0.8125 6.0625 -0.671875 6.8125 -0.671875 Z M 6.8125 -0.671875 "/></g></g></g><g fill="#0cc0df" fill-opacity="1"><g transform="translate(98.589079, 20.877961)"><g><path d="M 11.4375 -12.25 L 11.4375 0.046875 L 10.734375 0.046875 L 10.734375 -11.1875 L 6.546875 -4.84375 L 5.96875 -4.859375 L 5.9375 -4.90625 L 1.796875 -11.171875 L 1.796875 0.046875 L 1.09375 0.046875 L 1.09375 -12.25 L 1.0625 -12.3125 L 1.921875 -12.3125 L 6.265625 -5.71875 L 10.609375 -12.3125 L 11.484375 -12.3125 Z M 11.4375 -12.25 "/></g></g></g><g fill="#0cc0df" fill-opacity="1"><g transform="translate(111.122928, 20.877961)"><g><path d="M 1.78125 -11.578125 L 1.78125 -5.515625 L 7.5 -5.515625 L 7.5 -4.78125 L 1.78125 -4.78125 L 1.78125 -0.71875 L 8.78125 -0.71875 L 8.78125 0 L 1.0625 0 L 1.0625 -12.3125 L 8.78125 -12.3125 L 8.78125 -11.578125 Z M 1.78125 -11.578125 "/></g></g></g><g fill="#0cc0df" fill-opacity="1"><g transform="translate(120.514487, 20.877961)"><g><path d="M 10.421875 0 L 9.625 0 L 7.375 -4.890625 C 6.988281 -4.816406 6.609375 -4.78125 6.234375 -4.78125 C 6.222656 -4.78125 6.082031 -4.773438 5.8125 -4.765625 C 5.550781 -4.765625 5.21875 -4.765625 4.8125 -4.765625 C 4.414062 -4.765625 3.992188 -4.765625 3.546875 -4.765625 C 3.097656 -4.765625 2.675781 -4.765625 2.28125 -4.765625 C 1.882812 -4.765625 1.570312 -4.765625 1.34375 -4.765625 L 1.34375 0 L 0.625 0 L 0.625 -12.328125 L 0.984375 -12.328125 C 0.992188 -12.328125 1.125 -12.328125 1.375 -12.328125 C 1.632812 -12.328125 1.957031 -12.328125 2.34375 -12.328125 C 2.738281 -12.328125 3.15625 -12.328125 3.59375 -12.328125 C 4.03125 -12.328125 4.445312 -12.328125 4.84375 -12.328125 C 5.238281 -12.328125 5.566406 -12.320312 5.828125 -12.3125 C 6.085938 -12.3125 6.222656 -12.3125 6.234375 -12.3125 C 7.109375 -12.28125 7.816406 -12.144531 8.359375 -11.90625 C 8.910156 -11.675781 9.332031 -11.378906 9.625 -11.015625 C 9.914062 -10.648438 10.117188 -10.253906 10.234375 -9.828125 C 10.359375 -9.398438 10.421875 -8.972656 10.421875 -8.546875 C 10.421875 -7.859375 10.3125 -7.28125 10.09375 -6.8125 C 9.882812 -6.351562 9.601562 -5.984375 9.25 -5.703125 C 8.894531 -5.429688 8.507812 -5.222656 8.09375 -5.078125 Z M 6.21875 -5.515625 C 8.519531 -5.554688 9.671875 -6.566406 9.671875 -8.546875 C 9.671875 -10.503906 8.519531 -11.515625 6.21875 -11.578125 L 1.359375 -11.578125 L 1.359375 -5.515625 Z M 6.21875 -5.515625 "/></g></g></g><g fill="#0cc0df" fill-opacity="1"><g transform="translate(131.547805, 20.877961)"><g/></g></g><g fill="#0cc0df" fill-opacity="1"><g transform="translate(137.338093, 20.877961)"><g><path d="M 10.453125 0 L 9.671875 0 L 8.0625 -4.359375 L 3 -4.359375 L 1.375 0 L 0.625 0 L 5.1875 -12.3125 L 5.875 -12.3125 Z M 7.796875 -5.0625 L 5.53125 -11.171875 L 3.265625 -5.0625 Z M 7.796875 -5.0625 "/></g></g></g><g fill="#0cc0df" fill-opacity="1"><g transform="translate(146.817915, 20.877961)"><g><path d="M 10.15625 -0.921875 C 9.65625 -0.597656 9.125 -0.359375 8.5625 -0.203125 C 8 -0.046875 7.421875 0.03125 6.828125 0.03125 C 5.972656 0.03125 5.171875 -0.128906 4.421875 -0.453125 C 3.671875 -0.773438 3.007812 -1.222656 2.4375 -1.796875 C 1.875 -2.367188 1.429688 -3.023438 1.109375 -3.765625 C 0.785156 -4.515625 0.625 -5.320312 0.625 -6.1875 C 0.625 -7.039062 0.785156 -7.84375 1.109375 -8.59375 C 1.429688 -9.34375 1.875 -10 2.4375 -10.5625 C 3.007812 -11.132812 3.671875 -11.582031 4.421875 -11.90625 C 5.171875 -12.226562 5.972656 -12.390625 6.828125 -12.390625 C 7.421875 -12.390625 8 -12.3125 8.5625 -12.15625 C 9.125 -12 9.65625 -11.757812 10.15625 -11.4375 L 9.765625 -10.84375 C 8.867188 -11.40625 7.890625 -11.6875 6.828125 -11.6875 C 6.078125 -11.6875 5.367188 -11.539062 4.703125 -11.25 C 4.035156 -10.96875 3.453125 -10.578125 2.953125 -10.078125 C 2.453125 -9.578125 2.054688 -8.992188 1.765625 -8.328125 C 1.484375 -7.660156 1.34375 -6.945312 1.34375 -6.1875 C 1.34375 -5.425781 1.484375 -4.707031 1.765625 -4.03125 C 2.054688 -3.363281 2.453125 -2.78125 2.953125 -2.28125 C 3.453125 -1.78125 4.035156 -1.382812 4.703125 -1.09375 C 5.367188 -0.8125 6.078125 -0.671875 6.828125 -0.671875 C 7.890625 -0.671875 8.867188 -0.953125 9.765625 -1.515625 Z M 10.15625 -0.921875 "/></g></g></g><g fill="#0cc0df" fill-opacity="1"><g transform="translate(156.703766, 20.877961)"><g><path d="M 13.015625 -6.15625 C 13.015625 -5.0625 12.753906 -4.054688 12.234375 -3.140625 C 11.710938 -2.222656 11.023438 -1.488281 10.171875 -0.9375 L 10.96875 0.5 L 10.328125 0.84375 L 9.53125 -0.578125 C 8.707031 -0.171875 7.800781 0.03125 6.8125 0.03125 C 5.96875 0.03125 5.164062 -0.128906 4.40625 -0.453125 C 3.65625 -0.773438 3 -1.21875 2.4375 -1.78125 C 1.875 -2.34375 1.429688 -3 1.109375 -3.75 C 0.785156 -4.5 0.625 -5.300781 0.625 -6.15625 C 0.625 -7.007812 0.785156 -7.8125 1.109375 -8.5625 C 1.429688 -9.3125 1.875 -9.96875 2.4375 -10.53125 C 3 -11.101562 3.65625 -11.550781 4.40625 -11.875 C 5.164062 -12.195312 5.96875 -12.359375 6.8125 -12.359375 C 7.675781 -12.359375 8.476562 -12.195312 9.21875 -11.875 C 9.96875 -11.550781 10.628906 -11.101562 11.203125 -10.53125 C 11.773438 -9.96875 12.21875 -9.3125 12.53125 -8.5625 C 12.851562 -7.8125 13.015625 -7.007812 13.015625 -6.15625 Z M 9.8125 -1.578125 C 10.550781 -2.054688 11.144531 -2.695312 11.59375 -3.5 C 12.050781 -4.3125 12.28125 -5.195312 12.28125 -6.15625 C 12.28125 -6.914062 12.140625 -7.625 11.859375 -8.28125 C 11.578125 -8.9375 11.179688 -9.515625 10.671875 -10.015625 C 10.171875 -10.523438 9.59375 -10.921875 8.9375 -11.203125 C 8.28125 -11.492188 7.570312 -11.640625 6.8125 -11.640625 C 6.0625 -11.640625 5.351562 -11.492188 4.6875 -11.203125 C 4.03125 -10.921875 3.445312 -10.523438 2.9375 -10.015625 C 2.4375 -9.515625 2.046875 -8.9375 1.765625 -8.28125 C 1.484375 -7.625 1.34375 -6.914062 1.34375 -6.15625 C 1.34375 -5.40625 1.484375 -4.695312 1.765625 -4.03125 C 2.046875 -3.363281 2.4375 -2.78125 2.9375 -2.28125 C 3.445312 -1.78125 4.03125 -1.382812 4.6875 -1.09375 C 5.351562 -0.8125 6.0625 -0.671875 6.8125 -0.671875 C 7.664062 -0.671875 8.457031 -0.851562 9.1875 -1.21875 L 8.421875 -2.609375 L 9.046875 -2.96875 Z M 9.8125 -1.578125 "/></g></g></g><g fill="#0cc0df" fill-opacity="1"><g transform="translate(170.685182, 20.877961)"><g><path d="M 11.59375 -12.3125 L 11.59375 -5.796875 C 11.59375 -4.722656 11.382812 -3.742188 10.96875 -2.859375 C 10.550781 -1.972656 9.9375 -1.265625 9.125 -0.734375 C 8.3125 -0.210938 7.304688 0.046875 6.109375 0.046875 C 4.921875 0.046875 3.914062 -0.210938 3.09375 -0.734375 C 2.28125 -1.265625 1.664062 -1.972656 1.25 -2.859375 C 0.832031 -3.742188 0.625 -4.722656 0.625 -5.796875 L 0.625 -12.3125 L 1.34375 -12.3125 L 1.34375 -5.796875 C 1.34375 -4.859375 1.519531 -4 1.875 -3.21875 C 2.226562 -2.445312 2.753906 -1.828125 3.453125 -1.359375 C 4.160156 -0.898438 5.046875 -0.671875 6.109375 -0.671875 C 7.171875 -0.671875 8.054688 -0.898438 8.765625 -1.359375 C 9.472656 -1.828125 10.003906 -2.445312 10.359375 -3.21875 C 10.710938 -4 10.890625 -4.859375 10.890625 -5.796875 L 10.890625 -12.3125 Z M 11.59375 -12.3125 "/></g></g></g><g fill="#0cc0df" fill-opacity="1"><g transform="translate(182.901276, 20.877961)"><g><path d="M 1.78125 -19.703125 C 1.875 -19.703125 1.957031 -19.664062 2.03125 -19.59375 C 2.101562 -19.53125 2.140625 -19.445312 2.140625 -19.34375 C 2.140625 -19.25 2.101562 -19.164062 2.03125 -19.09375 C 1.957031 -19.03125 1.875 -19 1.78125 -19 C 1.6875 -19 1.601562 -19.03125 1.53125 -19.09375 C 1.46875 -19.164062 1.4375 -19.25 1.4375 -19.34375 C 1.4375 -19.445312 1.46875 -19.53125 1.53125 -19.59375 C 1.601562 -19.664062 1.6875 -19.703125 1.78125 -19.703125 Z M 1.0625 0 L 1.0625 -12.3125 L 1.78125 -12.3125 L 1.78125 0 Z M 1.0625 0 "/></g></g></g><g fill="#0cc0df" fill-opacity="1"><g transform="translate(185.743455, 20.877961)"><g><path d="M 6.609375 -6.6875 C 7.816406 -6.445312 8.742188 -6.1875 9.390625 -5.90625 C 10.046875 -5.625 10.503906 -5.269531 10.765625 -4.84375 C 11.023438 -4.425781 11.15625 -3.878906 11.15625 -3.203125 C 11.15625 -2.066406 10.726562 -1.226562 9.875 -0.6875 C 9.019531 -0.15625 7.691406 0.109375 5.890625 0.109375 C 4.015625 0.109375 2.625 -0.351562 1.71875 -1.28125 C 0.988281 -2.050781 0.625 -3.082031 0.625 -4.375 L 1.34375 -4.375 C 1.34375 -1.875 2.859375 -0.625 5.890625 -0.625 C 6.890625 -0.625 7.691406 -0.695312 8.296875 -0.84375 C 8.910156 -0.988281 9.367188 -1.179688 9.671875 -1.421875 C 9.984375 -1.671875 10.191406 -1.945312 10.296875 -2.25 C 10.398438 -2.5625 10.453125 -2.878906 10.453125 -3.203125 C 10.453125 -3.523438 10.421875 -3.816406 10.359375 -4.078125 C 10.296875 -4.335938 10.140625 -4.578125 9.890625 -4.796875 C 9.640625 -5.015625 9.242188 -5.21875 8.703125 -5.40625 C 8.160156 -5.601562 7.414062 -5.796875 6.46875 -5.984375 C 6.25 -6.035156 6.039062 -6.078125 5.84375 -6.109375 C 5.65625 -6.140625 5.460938 -6.179688 5.265625 -6.234375 C 4.546875 -6.367188 3.894531 -6.503906 3.3125 -6.640625 C 2.738281 -6.773438 2.25 -6.953125 1.84375 -7.171875 C 1.445312 -7.390625 1.144531 -7.675781 0.9375 -8.03125 C 0.726562 -8.394531 0.625 -8.875 0.625 -9.46875 C 0.625 -10.113281 0.769531 -10.632812 1.0625 -11.03125 C 1.363281 -11.425781 1.765625 -11.722656 2.265625 -11.921875 C 2.765625 -12.117188 3.328125 -12.25 3.953125 -12.3125 C 4.578125 -12.375 5.210938 -12.40625 5.859375 -12.40625 C 9.378906 -12.40625 11.140625 -11.273438 11.140625 -9.015625 L 10.421875 -9.015625 C 10.421875 -9.148438 10.40625 -9.328125 10.375 -9.546875 C 10.34375 -9.773438 10.257812 -10.007812 10.125 -10.25 C 9.988281 -10.488281 9.757812 -10.71875 9.4375 -10.9375 C 9.113281 -11.15625 8.660156 -11.332031 8.078125 -11.46875 C 7.503906 -11.613281 6.765625 -11.6875 5.859375 -11.6875 C 4.867188 -11.6875 4.070312 -11.625 3.46875 -11.5 C 2.875 -11.375 2.421875 -11.207031 2.109375 -11 C 1.804688 -10.800781 1.601562 -10.566406 1.5 -10.296875 C 1.394531 -10.035156 1.34375 -9.757812 1.34375 -9.46875 C 1.34375 -8.914062 1.460938 -8.488281 1.703125 -8.1875 C 1.953125 -7.894531 2.375 -7.660156 2.96875 -7.484375 C 3.5625 -7.316406 4.375 -7.132812 5.40625 -6.9375 C 5.59375 -6.894531 5.785156 -6.851562 5.984375 -6.8125 C 6.179688 -6.78125 6.390625 -6.738281 6.609375 -6.6875 Z M 6.609375 -6.6875 "/></g></g></g><g fill="#0cc0df" fill-opacity="1"><g transform="translate(197.518211, 20.877961)"><g><path d="M 1.78125 -19.703125 C 1.875 -19.703125 1.957031 -19.664062 2.03125 -19.59375 C 2.101562 -19.53125 2.140625 -19.445312 2.140625 -19.34375 C 2.140625 -19.25 2.101562 -19.164062 2.03125 -19.09375 C 1.957031 -19.03125 1.875 -19 1.78125 -19 C 1.6875 -19 1.601562 -19.03125 1.53125 -19.09375 C 1.46875 -19.164062 1.4375 -19.25 1.4375 -19.34375 C 1.4375 -19.445312 1.46875 -19.53125 1.53125 -19.59375 C 1.601562 -19.664062 1.6875 -19.703125 1.78125 -19.703125 Z M 1.0625 0 L 1.0625 -12.3125 L 1.78125 -12.3125 L 1.78125 0 Z M 1.0625 0 "/></g></g></g><g fill="#0cc0df" fill-opacity="1"><g transform="translate(200.36039, 20.877961)"><g><path d="M 10.34375 -12.328125 L 10.34375 -11.59375 L 5.84375 -11.59375 L 5.84375 0 L 5.125 0 L 5.125 -11.59375 L 0.625 -11.59375 L 0.625 -12.328125 Z M 10.34375 -12.328125 "/></g></g></g><g fill="#0cc0df" fill-opacity="1"><g transform="translate(211.3231, 20.877961)"><g><path d="M 1.78125 -19.703125 C 1.875 -19.703125 1.957031 -19.664062 2.03125 -19.59375 C 2.101562 -19.53125 2.140625 -19.445312 2.140625 -19.34375 C 2.140625 -19.25 2.101562 -19.164062 2.03125 -19.09375 C 1.957031 -19.03125 1.875 -19 1.78125 -19 C 1.6875 -19 1.601562 -19.03125 1.53125 -19.09375 C 1.46875 -19.164062 1.4375 -19.25 1.4375 -19.34375 C 1.4375 -19.445312 1.46875 -19.53125 1.53125 -19.59375 C 1.601562 -19.664062 1.6875 -19.703125 1.78125 -19.703125 Z M 1.0625 0 L 1.0625 -12.3125 L 1.78125 -12.3125 L 1.78125 0 Z M 1.0625 0 "/></g></g></g><g fill="#0cc0df" fill-opacity="1"><g transform="translate(214.165279, 20.877961)"><g><path d="M 6.8125 -12.359375 C 7.675781 -12.359375 8.476562 -12.195312 9.21875 -11.875 C 9.96875 -11.550781 10.628906 -11.101562 11.203125 -10.53125 C 11.773438 -9.96875 12.21875 -9.3125 12.53125 -8.5625 C 12.851562 -7.8125 13.015625 -7.007812 13.015625 -6.15625 C 13.015625 -5.300781 12.851562 -4.5 12.53125 -3.75 C 12.21875 -3 11.773438 -2.34375 11.203125 -1.78125 C 10.628906 -1.21875 9.96875 -0.773438 9.21875 -0.453125 C 8.476562 -0.128906 7.675781 0.03125 6.8125 0.03125 C 5.957031 0.03125 5.15625 -0.128906 4.40625 -0.453125 C 3.65625 -0.773438 3 -1.21875 2.4375 -1.78125 C 1.875 -2.34375 1.429688 -3 1.109375 -3.75 C 0.785156 -4.5 0.625 -5.300781 0.625 -6.15625 C 0.625 -7.007812 0.785156 -7.8125 1.109375 -8.5625 C 1.429688 -9.3125 1.875 -9.96875 2.4375 -10.53125 C 3 -11.101562 3.65625 -11.550781 4.40625 -11.875 C 5.15625 -12.195312 5.957031 -12.359375 6.8125 -12.359375 Z M 6.8125 -0.671875 C 7.570312 -0.671875 8.28125 -0.8125 8.9375 -1.09375 C 9.59375 -1.382812 10.171875 -1.78125 10.671875 -2.28125 C 11.179688 -2.78125 11.578125 -3.363281 11.859375 -4.03125 C 12.140625 -4.695312 12.28125 -5.40625 12.28125 -6.15625 C 12.28125 -6.914062 12.140625 -7.625 11.859375 -8.28125 C 11.578125 -8.9375 11.179688 -9.515625 10.671875 -10.015625 C 10.171875 -10.523438 9.59375 -10.921875 8.9375 -11.203125 C 8.28125 -11.492188 7.570312 -11.640625 6.8125 -11.640625 C 6.0625 -11.640625 5.351562 -11.492188 4.6875 -11.203125 C 4.03125 -10.921875 3.445312 -10.523438 2.9375 -10.015625 C 2.4375 -9.515625 2.046875 -8.9375 1.765625 -8.28125 C 1.484375 -7.625 1.34375 -6.914062 1.34375 -6.15625 C 1.34375 -5.40625 1.484375 -4.695312 1.765625 -4.03125 C 2.046875 -3.363281 2.4375 -2.78125 2.9375 -2.28125 C 3.445312 -1.78125 4.03125 -1.382812 4.6875 -1.09375 C 5.351562 -0.8125 6.0625 -0.671875 6.8125 -0.671875 Z M 6.8125 -0.671875 "/></g></g></g><g fill="#0cc0df" fill-opacity="1"><g transform="translate(227.617092, 20.877961)"><g><path d="M 11.359375 -12.3125 L 11.359375 0 L 10.453125 0 L 1.78125 -11.3125 L 1.78125 0 L 1.0625 0 L 1.0625 -12.3125 L 1.921875 -12.3125 L 10.625 -0.9375 L 10.625 -12.3125 Z M 11.359375 -12.3125 "/></g></g></g></g></g></svg>